{
  "accessors": [
    {
      "bufferView": 1,
      "componentType": 5126,
      "count": 65532,
      "max": [
        0.832889974117279,
        0.7903199791908264,
        3.734800100326538
      ],
      "min": [
        -0.8058000206947327,
        -0.8058000206947327,
        2.0645999908447266
      ],
      "type": "VEC3"
    },
    {
      "bufferView": 1,
      "byteOffset": 786384,
      "componentType": 5126,
      "count": 65532,
      "max": [
        1.0,
        1.0,
        1.0
      ],
      "min": [
        -1.0,
        -1.0,
        -0.9209408164024353
      ],
      "type": "VEC3"
    },
    {
      "bufferView": 0,
      "componentType": 5125,
      "count": 388038,
      "type": "SCALAR"
    },
    {
      "bufferView": 1,
      "byteOffset": 1572768,
      "componentType": 5126,
      "count": 65532,
      "max": [
        1.3841500282287598,
        1.442330002784729,
        2.134550094604492
      ],
      "min": [
        -1.442330002784729,
        -0.8718000054359436,
        -0.6445500254631042
      ],
      "type": "VEC3"
    },
    {
      "bufferView": 1,
      "byteOffset": 2359152,
      "componentType": 5126,
      "count": 65532,
      "max": [
        0.9999998211860657,
        0.9999998211860657,
        0.9842023253440857
      ],
      "min": [
        -0.9999998211860657,
        -0.9999998211860657,
        -0.9997266530990601
      ],
      "type": "VEC3"
    },
    {
      "bufferView": 0,
      "byteOffset": 1552152,
      "componentType": 5125,
      "count": 387048,
      "type": "SCALAR"
    },
    {
      "bufferView": 1,
      "byteOffset": 3145536,
      "componentType": 5126,
      "count": 65532,
      "max": [
        1.4624300003051758,
        1.4624300003051758,
        3.7198400497436523
      ],
      "min": [
        -1.4624300003051758,
        -1.4624300003051758,
        -0.9999300241470337
      ],
      "type": "VEC3"
    },
    {
      "bufferView": 1,
      "byteOffset": 3931920,
      "componentType": 5126,
      "count": 65532,
      "max": [
        1.0,
        1.0,
        0.9842023253440857
      ],
      "min": [
        -0.9999619126319885,
        -1.0,
        -1.0
      ],
      "type": "VEC3"
    },
    {
      "bufferView": 0,
      "byteOffset": 3100344,
      "componentType": 5125,
      "count": 382029,
      "type": "SCALAR"
    },
    {
      "bufferView": 1,
      "byteOffset": 4718304,
      "componentType": 5126,
      "count": 2199,
      "max": [
        0.8640000224113464,
        0.8265200257301331,
        2.134550094604492
      ],
      "min": [
        -0.8630899786949158,
        -0.8630899786949158,
        0.3602699935436249
      ],
      "type": "VEC3"
    },
    {
      "bufferView": 1,
      "byteOffset": 4744692,
      "componentType": 5126,
      "count": 2199,
      "max": [
        0.999680757522583,
        0.9779690504074097,
        0.9776501655578613
      ],
      "min": [
        -0.9635836482048035,
        -0.994348406791687,
        -0.9997259378433228
      ],
      "type": "VEC3"
    },
    {
      "bufferView": 0,
      "byteOffset": 4628460,
      "componentType": 5125,
      "count": 10245,
      "type": "SCALAR"
    }
  ],
  "asset": {
    "extras": {
      "author": "carkoon (https://sketchfab.com/carkoon)",
      "license": "CC-BY-4.0 (http://creativecommons.org/licenses/by/4.0/)",
      "source": "https://sketchfab.com/3d-models/chess-pawn-4dd51a394b9d4c519ca93befdd3bdd1b",
      "title": "Chess Pawn"
    },
    "generator": "Sketchfab-12.67.0",
    "version": "2.0"
  },
  "bufferViews": [
    {
      "buffer": 0,
      "byteLength": 4669440,
      "name": "floatBufferViews",
      "target": 34963
    },
    {
      "buffer": 0,
      "byteLength": 4771080,
      "byteOffset": 4669440,
      "byteStride": 12,
      "name": "floatBufferViews",
      "target": 34962
    }
  ],
  "buffers": [
    {
      "byteLength": 9440520,
      "uri": "scene.bin"
    }
  ],
  "materials": [
    {
      "doubleSided": true,
      "emissiveFactor": [
        0.20000000298023224,
        0.20000000298023224,
        0.20000000298023224
      ],
      "name": "Material",
      "pbrMetallicRoughness": {
        "metallicFactor": 0.0,
        "roughnessFactor": 0.6
      }
    }
  ],
  "meshes": [
    {
      "name": "Pawn_0",
      "primitives": [
        {
          "attributes": {
            "NORMAL": 1,
            "POSITION": 0
          },
          "indices": 2,
          "material": 0,
          "mode": 4
        }
      ]
    },
    {
      "name": "Pawn_0",
      "primitives": [
        {
          "attributes": {
            "NORMAL": 4,
            "POSITION": 3
          },
          "indices": 5,
          "material": 0,
          "mode": 4
        }
      ]
    },
    {
      "name": "Pawn_0",
      "primitives": [
        {
          "attributes": {
            "NORMAL": 7,
            "POSITION": 6
          },
          "indices": 8,
          "material": 0,
          "mode": 4
        }
      ]
    },
    {
      "name": "Pawn_0",
      "primitives": [
        {
          "attributes": {
            "NORMAL": 10,
            "POSITION": 9
          },
          "indices": 11,
          "material": 0,
          "mode": 4
        }
      ]
    }
  ],
  "nodes": [
    {
      "children": [
        1
      ],
      "matrix": [
        1.0,
        0.0,
        0.0,
        0.0,
        0.0,
        2.220446049250313e-16,
        -1.0,
        0.0,
        0.0,
        1.0,
        2.220446049250313e-16,
        0.0,
        0.0,
        0.0,
        0.0,
        1.0
      ],
      "name": "Sketchfab_model"
    },
    {
      "children": [
        2,
        4
      ],
      "name": "Root"
    },
    {
      "children": [
        3
      ],
      "matrix": [
        0.7073900000000001,
        -0.5583400000000001,
        -0.43343000000000004,
        0.0,
        0.40535000000000004,
        -0.18190000000000003,
        0.8958800000000001,
        0.0,
        -0.5790500000000001,
        -0.80942,
        0.09764000000000003,
        0.0,
        -6.94688,
        -8.67562,
        5.15932,
        1.0
      ],
      "name": "Lamp"
    },
    {
      "name": "Lamp"
    },
    {
      "children": [
        5,
        6,
        7,
        8
      ],
      "matrix": [
        1.0,
        0.0,
        0.0,
        0.0,
        0.0,
        1.0,
        0.0,
        0.0,
        0.0,
        0.0,
        1.0,
        0.0,
        0.0,
        0.0,
        1.0,
        1.0
      ],
      "name": "Pawn"
    },
    {
      "mesh": 0,
      "name": "Pawn_0"
    },
    {
      "mesh": 1,
      "name": "Pawn_0"
    },
    {
      "mesh": 2,
      "name": "Pawn_0"
    },
    {
      "mesh": 3,
      "name": "Pawn_0"
    }
  ],
  "scene": 0,
  "scenes": [
    {
      "name": "Sketchfab_Scene",
      "nodes": [
        0
      ]
    }
  ]
}
